<?xml version="1.0" standalone="no"?>
<!DOCTYPE svg PUBLIC "-//W3C//DTD SVG 20010904//EN"
 "http://www.w3.org/TR/2001/REC-SVG-20010904/DTD/svg10.dtd">
<svg version="1.0" xmlns="http://www.w3.org/2000/svg"
 width="769.000000pt" height="145.000000pt" viewBox="0 0 769.000000 145.000000"
 preserveAspectRatio="xMidYMid meet">

<g transform="translate(0.000000,145.000000) scale(0.100000,-0.100000)"
fill="#ffffff" stroke="none">
<path d="M5787 1132 c-15 -15 -27 -32 -27 -36 0 -4 -10 -22 -22 -39 -12 -18
-18 -29 -13 -25 4 4 14 3 22 -4 7 -6 15 -9 17 -7 13 17 74 129 67 125 -5 -4
-11 -1 -13 4 -2 6 -16 -2 -31 -18z m28 -2 c-3 -5 -12 -10 -18 -10 -7 0 -6 4 3
10 19 12 23 12 15 0z m-41 -75 c-19 -29 -20 -29 -30 -13 -5 7 -3 8 6 3 10 -6
12 -4 7 9 -4 9 -3 14 2 11 5 -3 12 -1 16 5 3 5 8 10 11 10 2 0 -3 -11 -12 -25z"/>
<path d="M352 668 c0 -139 2 -245 5 -235 2 9 13 17 24 17 10 0 19 7 19 15 0 8
9 22 20 32 18 17 19 35 22 221 2 111 -1 202 -5 202 -4 0 -19 -7 -33 -16 -19
-13 -24 -14 -22 -4 2 8 -5 15 -14 18 -15 3 -17 -17 -16 -250z"/>
<path d="M521 903 c10 -11 10 -14 2 -9 -10 6 -13 -35 -13 -188 0 -168 2 -196
15 -196 8 0 15 -7 15 -16 0 -10 -6 -14 -15 -10 -12 4 -15 -5 -15 -49 l0 -55
40 0 c22 0 40 5 40 11 0 5 -6 7 -12 3 -10 -6 -10 -4 0 7 16 18 18 364 1 353
-8 -4 -8 -1 0 14 6 12 10 27 9 34 -4 19 381 29 400 11 7 -7 23 -19 35 -28 21
-15 22 -23 25 -200 2 -140 6 -184 15 -178 9 5 9 3 0 -8 -11 -13 -6 -16 32 -18
l45 -2 0 176 c0 138 -3 175 -12 169 -9 -5 -9 -2 1 9 9 11 10 17 2 17 -6 0 -10
3 -9 8 4 14 -13 52 -23 52 -6 0 -8 4 -4 9 8 14 -30 32 -42 20 -6 -6 -10 -5
-10 5 0 8 8 13 19 11 10 -2 18 -2 18 0 0 9 -81 46 -89 40 -5 -2 -14 2 -21 10
-10 12 -50 15 -237 15 -211 0 -225 -1 -212 -17z"/>
<path d="M1217 900 c3 -11 9 -23 14 -25 4 -3 6 -12 2 -20 -3 -8 -1 -15 4 -15
5 0 9 -8 10 -17 2 -27 8 -46 18 -63 5 -8 10 -19 12 -25 6 -29 30 -85 43 -101
8 -10 10 -15 3 -11 -8 5 -8 -2 -1 -28 6 -19 15 -32 19 -29 5 3 6 -2 3 -10 -4
-10 -1 -16 7 -16 7 0 10 -3 6 -6 -7 -7 29 -111 45 -132 11 -13 10 -14 -2 -7
-12 6 -13 5 -3 -5 10 -11 15 -11 29 1 13 10 16 10 10 1 -6 -10 12 -12 89 -10
l97 3 39 105 c22 58 41 112 42 120 2 8 9 25 16 38 7 13 10 30 7 38 -3 9 -1 12
4 9 6 -3 11 -1 11 4 1 6 2 14 4 19 1 4 5 21 10 37 4 17 12 36 18 43 5 6 7 12
3 12 -4 0 1 11 10 25 9 14 13 25 9 25 -4 0 -16 -11 -27 -25 -11 -14 -25 -25
-31 -25 -6 0 -1 7 11 16 12 8 20 20 17 25 -4 5 -1 9 5 9 6 0 9 4 5 9 -3 5 0
13 6 17 8 5 9 3 4 -6 -5 -8 -3 -11 5 -8 7 2 16 13 20 24 7 18 3 20 -36 22 -38
1 -45 -2 -58 -26 -7 -15 -19 -51 -26 -80 -6 -28 -16 -55 -21 -58 -5 -3 -7 -10
-4 -15 4 -5 2 -9 -3 -9 -15 0 -21 -37 -8 -51 8 -8 8 -10 0 -6 -7 4 -18 -10
-27 -36 -9 -23 -22 -55 -28 -72 -18 -45 -21 -67 -7 -59 7 4 8 3 4 -5 -4 -6
-12 -9 -17 -6 -5 4 -9 1 -9 -4 0 -7 -23 -11 -55 -11 -32 0 -55 4 -55 11 0 5
-4 8 -8 5 -5 -3 -9 0 -9 7 0 7 -8 34 -18 60 -14 37 -21 45 -31 36 -15 -12 -34
-4 -34 14 0 7 4 6 10 -3 8 -13 11 -13 24 0 13 13 13 19 -3 53 -9 20 -21 34
-26 30 -4 -5 -6 -1 -3 8 7 19 -45 172 -60 177 -5 1 -8 12 -5 22 5 18 0 20 -40
20 -40 0 -45 -2 -40 -20z m49 -34 c1 -7 -4 -13 -11 -13 -7 0 -10 8 -7 19 5 20
15 17 18 -6z m41 -3 c-4 -3 -1 -13 6 -22 10 -14 10 -14 -4 -4 -9 7 -20 9 -25
5 -4 -4 -2 1 5 11 7 9 16 17 19 17 3 0 2 -3 -1 -7z m-7 -46 c0 -2 -8 -3 -18
-3 -10 0 -19 6 -19 13 0 8 6 9 19 2 10 -5 18 -11 18 -12z m394 -106 c3 -5 -2
-15 -12 -22 -15 -12 -16 -12 -5 2 7 9 10 19 6 22 -3 4 -4 7 0 7 3 0 8 -4 11
-9z m10 -59 c3 -5 -1 -9 -9 -9 -8 0 -12 4 -9 9 3 4 7 8 9 8 2 0 6 -4 9 -8z
m-81 -175 c-3 -5 1 -13 8 -18 10 -6 10 -9 2 -9 -7 0 -17 8 -22 18 -7 14 -6 19
4 19 8 0 11 -5 8 -10z m-3 -48 c0 -5 -4 -9 -8 -9 -5 0 -9 7 -9 15 0 8 4 12 9
9 4 -3 8 -9 8 -15z"/>
<path d="M1897 913 c-4 -3 -7 -26 -7 -50 l0 -43 299 0 299 0 4 50 3 49 -296 1
c-162 0 -298 -3 -302 -7z"/>
<path d="M2728 910 c-2 -6 -14 -12 -28 -15 -14 -3 -26 -9 -28 -15 -2 -5 -10
-10 -18 -10 -8 0 -14 -5 -14 -11 0 -5 -4 -8 -9 -5 -5 3 -14 -1 -20 -8 -9 -11
-9 -16 0 -22 8 -4 9 -3 5 4 -4 7 -2 12 4 12 7 0 10 -6 8 -12 -3 -7 -13 -13
-23 -13 -25 0 -51 -76 -50 -147 l0 -53 250 -3 c138 -1 261 -3 275 -4 20 0 25
-6 25 -22 -1 -12 -5 -28 -10 -36 -5 -9 -4 -11 3 -6 7 4 12 2 12 -3 0 -6 -7
-11 -15 -11 -8 0 -15 -5 -15 -11 0 -5 6 -7 13 -3 9 5 9 4 0 -6 -19 -20 -38
-22 -298 -29 l-240 -6 -3 -39 c-3 -25 1 -42 10 -47 20 -13 435 -11 443 1 4 6
15 8 26 5 11 -4 19 -2 19 4 0 6 3 10 8 9 4 -1 25 10 48 25 55 37 77 85 80 178
l3 77 -262 -1 c-212 0 -264 -3 -272 -14 -8 -10 -10 -5 -9 19 2 62 4 68 23 85
11 9 18 20 16 23 -7 11 13 12 263 17 l242 4 0 49 0 50 -229 0 c-146 0 -231 -4
-233 -10z m-38 -234 c0 -2 -8 -10 -17 -17 -16 -13 -17 -12 -4 4 13 16 21 21
21 13z m334 -17 c-3 -5 -10 -7 -15 -3 -5 3 -7 10 -3 15 3 5 10 7 15 3 5 -3 7
-10 3 -15z m-111 -36 c-7 -2 -19 -2 -25 0 -7 3 -2 5 12 5 14 0 19 -2 13 -5z
m220 -68 c-3 -9 -8 -14 -10 -11 -3 3 -2 9 2 15 9 16 15 13 8 -4z m28 -42 c-12
-20 -14 -14 -5 12 4 9 9 14 11 11 3 -2 0 -13 -6 -23z m-31 7 c0 -5 -5 -10 -11
-10 -5 0 -7 5 -4 10 3 6 8 10 11 10 2 0 4 -4 4 -10z"/>
<path d="M3250 870 c0 -27 3 -49 8 -49 4 1 63 1 132 0 l125 -1 -3 -220 c-1
-137 2 -220 8 -220 5 0 7 8 4 18 -5 14 -4 14 4 3 6 -8 24 -15 41 -16 l31 -1 0
218 0 218 124 0 c127 0 147 6 126 40 -5 8 -6 19 -2 25 21 33 13 34 -275 35
-218 0 -289 -2 -301 -12 -12 -10 -14 -10 -8 0 4 6 2 12 -3 12 -6 0 -11 -21
-11 -50z"/>
<path d="M3920 870 l0 -50 300 0 301 0 -2 50 c-2 31 -7 49 -13 46 -6 -2 -10
-9 -8 -15 1 -7 -2 -10 -8 -6 -6 3 -8 11 -5 16 4 5 -106 9 -279 9 l-286 0 0
-50z"/>
<path d="M4741 651 l0 -268 45 -1 45 -1 -2 37 c-2 20 -7 43 -13 50 -7 10 -6
20 3 34 9 14 9 24 2 31 -7 7 -7 17 1 31 6 12 11 23 12 26 1 22 39 25 274 22
264 -3 282 0 263 37 -5 9 -6 22 -4 29 4 10 -15 13 -85 11 -62 -2 -89 -6 -85
-13 4 -7 1 -6 -8 1 -9 7 -68 11 -184 10 l-170 -2 1 -37 c0 -20 -3 -35 -7 -32
-4 2 -9 1 -12 -3 -2 -5 -2 -1 1 7 2 8 6 35 8 60 4 34 0 48 -13 59 -15 11 -15
13 -2 8 14 -5 16 1 15 34 l-2 39 273 0 273 0 -1 28 c0 15 2 37 4 50 l6 22
-319 0 -319 0 0 -269z m70 126 c-10 -9 -11 -8 -5 6 3 10 9 15 12 12 3 -3 0
-11 -7 -18z m3 -73 c3 -8 2 -12 -4 -9 -6 3 -10 10 -10 16 0 14 7 11 14 -7z
m182 -36 c4 -7 4 -10 -1 -6 -4 4 -15 2 -24 -5 -14 -11 -14 -10 -2 6 16 20 18
21 27 5z m188 -6 c2 -4 -4 -8 -14 -8 -10 0 -16 4 -14 8 3 4 9 8 14 8 5 0 11
-4 14 -8z"/>
<path d="M5440 650 l0 -270 46 0 45 0 -3 88 -3 87 213 -2 c117 -1 210 2 207 7
-3 4 3 7 12 5 10 -2 21 -4 24 -4 7 -1 9 -19 8 -108 l0 -73 41 0 40 0 -1 183
c0 112 -5 194 -12 214 -18 49 -82 111 -123 119 -19 3 -37 10 -40 15 -3 5 -106
9 -230 9 l-224 0 0 -270z m513 160 c14 -1 16 -4 7 -15 -8 -10 -7 -16 7 -24 10
-6 14 -11 10 -11 -4 0 -2 -10 4 -22 17 -31 17 -87 1 -93 -8 -3 -113 -5 -235
-5 l-222 0 1 58 c1 31 2 72 3 90 l1 33 203 -5 c111 -2 210 -5 220 -6z m32 -20
c-3 -5 -12 -10 -18 -10 -7 0 -6 4 3 10 19 12 23 12 15 0z"/>
<path d="M6140 844 c0 -42 5 -85 11 -96 8 -15 8 -19 0 -14 -15 10 -14 -7 2
-23 6 -8 7 -11 1 -8 -7 4 -11 -34 -13 -123 -2 -101 1 -130 11 -130 10 0 10 -2
0 -8 -6 -5 -11 -20 -10 -35 l2 -27 89 0 c83 0 88 1 76 17 -10 11 -10 14 -1 9
6 -4 12 -3 12 3 0 6 10 13 23 16 12 3 27 17 34 30 l11 25 -79 0 -79 0 0 170 0
170 224 0 c195 0 225 -2 230 -16 3 -9 4 -19 1 -24 -3 -4 15 -7 40 -7 l45 0 0
74 0 73 -315 0 -315 -1 0 -75z m611 9 c13 -16 12 -17 -3 -4 -10 7 -18 15 -18
17 0 8 8 3 21 -13z m-7 -49 c3 -8 2 -12 -4 -9 -6 3 -10 10 -10 16 0 14 7 11
14 -7z"/>
<path d="M6843 886 c2 -19 8 -40 12 -46 6 -9 4 -11 -4 -5 -10 6 -11 3 -1 -15
8 -15 8 -20 1 -16 -6 4 -11 0 -11 -9 0 -9 4 -14 8 -11 5 3 9 -1 9 -9 0 -8 -4
-12 -9 -9 -5 3 -8 -31 -7 -75 1 -57 5 -79 13 -74 6 3 6 0 -1 -8 -18 -18 -16
-46 3 -53 8 -3 12 -11 8 -17 -4 -8 -9 -7 -15 2 -6 10 -8 7 -6 -9 1 -12 6 -21
12 -18 7 2 12 -2 12 -9 0 -7 -6 -11 -14 -8 -10 4 -13 -9 -13 -54 0 -58 0 -59
30 -61 17 -1 30 2 30 8 0 5 5 10 11 10 5 0 7 -6 3 -12 -4 -7 -4 -10 0 -6 8 7
10 58 7 341 l-1 197 -41 0 c-40 0 -41 0 -36 -34z"/>
<path d="M6990 650 l0 -270 201 0 c143 0 198 3 193 11 -4 8 0 8 15 0 20 -11
21 -10 21 39 l0 50 -174 0 c-173 0 -174 0 -168 22 3 14 2 19 -6 14 -7 -4 -12
-1 -12 9 0 10 -5 13 -12 9 -7 -4 -8 -3 -4 5 6 9 11 9 21 1 12 -10 14 19 12
172 -2 146 -5 182 -15 180 -8 -1 -11 2 -7 8 3 6 11 8 16 5 5 -4 9 -2 9 3 0 5
-20 10 -45 10 l-45 1 0 -269z"/>
<path d="M1894 676 c-3 -8 -4 -25 -2 -38 l3 -23 298 -3 c269 -2 298 -1 304 14
3 9 1 25 -5 35 -9 13 -8 19 1 22 7 3 -95 5 -225 4 l-238 -1 17 -20 c10 -12 11
-15 3 -8 -18 15 -34 16 -24 0 4 -7 3 -8 -4 -4 -6 4 -9 13 -5 21 4 12 -6 15
-56 15 -44 0 -63 -4 -67 -14z m291 -6 c3 -6 -1 -7 -9 -4 -18 7 -21 14 -7 14 6
0 13 -4 16 -10z m35 6 c0 -3 -4 -8 -10 -11 -5 -3 -10 -1 -10 4 0 6 5 11 10 11
6 0 10 -2 10 -4z m-309 -43 c-12 -20 -14 -14 -5 12 4 9 9 14 11 11 3 -2 0 -13
-6 -23z"/>
<path d="M3920 651 l0 -40 294 -3 c162 -2 293 -1 290 1 -2 2 4 10 14 17 12 10
13 13 3 14 -10 0 -11 3 -3 13 21 24 -4 32 -106 35 -82 2 -102 0 -96 -10 6 -10
5 -10 -7 -1 -24 19 -58 12 -53 -10 2 -11 0 -16 -4 -13 -4 4 -7 13 -7 19 0 9
-47 13 -162 15 l-163 2 0 -39z m514 21 c3 -5 -1 -9 -9 -9 -8 0 -12 4 -9 9 3 4
7 8 9 8 2 0 6 -4 9 -8z m76 -8 c0 -2 -7 -4 -15 -4 -8 0 -15 4 -15 10 0 5 7 7
15 4 8 -4 15 -8 15 -10z"/>
<path d="M6690 505 c-9 -24 -13 -25 -99 -25 -75 0 -90 -3 -96 -17 -6 -17 -7
-17 -19 0 -20 27 -29 20 -10 -8 15 -23 15 -25 0 -25 -9 0 -16 -4 -16 -9 0 -5
-7 -17 -16 -26 -15 -14 -2 -16 160 -15 l176 2 0 64 c0 44 -4 64 -12 64 -9 0
-8 4 2 10 13 9 13 10 0 10 -9 0 -22 -6 -29 -12 -11 -10 -13 -10 -7 0 4 7 1 12
-9 12 -8 0 -20 -11 -25 -25z"/>
<path d="M4821 484 c0 -11 3 -14 6 -6 3 7 2 16 -1 19 -3 4 -6 -2 -5 -13z"/>
<path d="M1965 453 c6 -28 3 -34 -19 -44 -14 -7 -26 -16 -26 -21 0 -10 570
-11 571 0 0 4 1 26 2 50 l2 42 -247 0 c-214 0 -248 -2 -248 -15 0 -20 -10 -19
-27 3 -12 15 -13 14 -8 -15z"/>
<path d="M3921 432 c2 -43 5 -48 27 -50 14 -1 32 4 40 10 13 10 14 10 8 1 -4
-7 -3 -13 3 -13 5 0 12 6 14 13 4 10 6 10 6 0 1 -9 19 -13 57 -13 41 0 53 3
48 13 -4 6 -4 9 1 5 4 -4 15 -2 24 5 14 11 14 10 2 -5 -13 -17 -3 -18 178 -18
l191 0 0 50 0 50 -300 0 -301 0 2 -48z m583 -30 c3 -5 -1 -9 -9 -9 -8 0 -12 4
-9 9 3 4 7 8 9 8 2 0 6 -4 9 -8z"/>
<path d="M6423 456 c7 -13 15 -22 19 -20 8 5 -13 44 -23 44 -4 0 -2 -11 4 -24z"/>
<path d="M395 422 c-22 -16 -14 -31 14 -29 27 2 28 3 14 20 -9 9 -17 17 -17
17 -1 0 -5 -4 -11 -8z"/>
<path d="M1890 410 c0 -5 5 -10 10 -10 6 0 10 5 10 10 0 6 -4 10 -10 10 -5 0
-10 -4 -10 -10z"/>
<path d="M6344 391 c3 -5 17 -8 32 -8 18 0 22 2 13 8 -18 11 -52 11 -45 0z"/>
</g>
</svg>
